<svg width="81" height="80" viewBox="0 0 81 80" fill="none" xmlns="http://www.w3.org/2000/svg">
    <path d="M14.0875 72L8 67.1001L8 34.7919L38 46.6703L18.1404 72H14.0875Z" fill="url(#paint0_linear)"/>
    <path d="M28.9525 72L60.2741 39.9159L45.6709 8.46019L46.0581 8L72 8V72H28.9525Z" fill="url(#paint1_linear)"/>
    <path d="M42.4124 8H72V36.0366L57.0078 52L42 8.44696L42.4124 8Z" fill="url(#paint2_linear)"/>
    <path d="M38.3359 72H8V57.971L14.2344 37.2831L8 35.1596V8H47.4697L66 29.3845L38.5381 71.9259L38.3359 72Z"
          fill="url(#paint3_linear)"/>
    <path d="M68 12H12V68H68V12Z" fill="black"/>
    <path d="M38 58H16V62H38V58Z" fill="#FFFEFE"/>
    <path d="M20.74 35.21C19.89 35.21 19.065 35.105 18.265 34.895C17.465 34.685 16.815 34.405 16.315 34.055L17.29 31.865C17.76 32.175 18.305 32.425 18.925 32.615C19.545 32.805 20.155 32.9 20.755 32.9C21.895 32.9 22.465 32.615 22.465 32.045C22.465 31.745 22.3 31.525 21.97 31.385C21.65 31.235 21.13 31.08 20.41 30.92C19.62 30.75 18.96 30.57 18.43 30.38C17.9 30.18 17.445 29.865 17.065 29.435C16.685 29.005 16.495 28.425 16.495 27.695C16.495 27.055 16.67 26.48 17.02 25.97C17.37 25.45 17.89 25.04 18.58 24.74C19.28 24.44 20.135 24.29 21.145 24.29C21.835 24.29 22.515 24.37 23.185 24.53C23.855 24.68 24.445 24.905 24.955 25.205L24.04 27.41C23.04 26.87 22.07 26.6 21.13 26.6C20.54 26.6 20.11 26.69 19.84 26.87C19.57 27.04 19.435 27.265 19.435 27.545C19.435 27.825 19.595 28.035 19.915 28.175C20.235 28.315 20.75 28.46 21.46 28.61C22.26 28.78 22.92 28.965 23.44 29.165C23.97 29.355 24.425 29.665 24.805 30.095C25.195 30.515 25.39 31.09 25.39 31.82C25.39 32.45 25.215 33.02 24.865 33.53C24.515 34.04 23.99 34.45 23.29 34.76C22.59 35.06 21.74 35.21 20.74 35.21ZM30.7069 35.135C29.8369 35.135 29.0519 34.955 28.3519 34.595C27.6519 34.235 27.1019 33.735 26.7019 33.095C26.3119 32.455 26.1169 31.73 26.1169 30.92C26.1169 30.12 26.3119 29.4 26.7019 28.76C27.1019 28.12 27.6469 27.625 28.3369 27.275C29.0369 26.915 29.8269 26.735 30.7069 26.735C31.5869 26.735 32.3769 26.915 33.0769 27.275C33.7769 27.625 34.3219 28.12 34.7119 28.76C35.1019 29.39 35.2969 30.11 35.2969 30.92C35.2969 31.73 35.1019 32.455 34.7119 33.095C34.3219 33.735 33.7769 34.235 33.0769 34.595C32.3769 34.955 31.5869 35.135 30.7069 35.135ZM30.7069 32.87C31.2069 32.87 31.6169 32.7 31.9369 32.36C32.2569 32.01 32.4169 31.53 32.4169 30.92C32.4169 30.32 32.2569 29.85 31.9369 29.51C31.6169 29.17 31.2069 29 30.7069 29C30.2069 29 29.7969 29.17 29.4769 29.51C29.1569 29.85 28.9969 30.32 28.9969 30.92C28.9969 31.53 29.1569 32.01 29.4769 32.36C29.7969 32.7 30.2069 32.87 30.7069 32.87ZM39.3321 27.845C39.6221 27.475 39.9971 27.2 40.4571 27.02C40.9271 26.83 41.4621 26.735 42.0621 26.735V29.3C41.8021 29.27 41.5871 29.255 41.4171 29.255C40.8071 29.255 40.3271 29.42 39.9771 29.75C39.6371 30.08 39.4671 30.585 39.4671 31.265V35H36.6171V26.87H39.3321V27.845ZM45.9532 27.845C46.2432 27.475 46.6182 27.2 47.0782 27.02C47.5482 26.83 48.0832 26.735 48.6832 26.735V29.3C48.4232 29.27 48.2082 29.255 48.0382 29.255C47.4282 29.255 46.9482 29.42 46.5982 29.75C46.2582 30.08 46.0882 30.585 46.0882 31.265V35H43.2382V26.87H45.9532V27.845ZM58.0961 30.95C58.0961 30.97 58.0811 31.205 58.0511 31.655H52.1411C52.2611 32.075 52.4911 32.4 52.8311 32.63C53.1811 32.85 53.6161 32.96 54.1361 32.96C54.5261 32.96 54.8611 32.905 55.1411 32.795C55.4311 32.685 55.7211 32.505 56.0111 32.255L57.5111 33.815C56.7211 34.695 55.5661 35.135 54.0461 35.135C53.0961 35.135 52.2611 34.955 51.5411 34.595C50.8211 34.235 50.2611 33.735 49.8611 33.095C49.4711 32.455 49.2761 31.73 49.2761 30.92C49.2761 30.12 49.4661 29.405 49.8461 28.775C50.2361 28.135 50.7711 27.635 51.4511 27.275C52.1311 26.915 52.8961 26.735 53.7461 26.735C54.5561 26.735 55.2911 26.905 55.9511 27.245C56.6111 27.575 57.1311 28.06 57.5111 28.7C57.9011 29.33 58.0961 30.08 58.0961 30.95ZM53.7611 28.76C53.3211 28.76 52.9511 28.885 52.6511 29.135C52.3611 29.385 52.1761 29.725 52.0961 30.155H55.4261C55.3461 29.725 55.1561 29.385 54.8561 29.135C54.5661 28.885 54.2011 28.76 53.7611 28.76ZM59.4101 23.87H62.2601V35H59.4101V23.87Z"
          fill="white"/>
    <defs>
        <linearGradient id="paint0_linear" x1="7.9907" y1="53.3822" x2="38.0159" y2="53.3822"
                        gradientUnits="userSpaceOnUse">
            <stop offset="0.2581" stop-color="#F97A12"/>
            <stop offset="0.4591" stop-color="#B07B58"/>
            <stop offset="0.7241" stop-color="#577BAE"/>
            <stop offset="0.9105" stop-color="#1E7CE5"/>
            <stop offset="1" stop-color="#087CFA"/>
        </linearGradient>
        <linearGradient id="paint1_linear" x1="40.8121" y1="30.089" x2="70.5968" y2="45.8787"
                        gradientUnits="userSpaceOnUse">
            <stop stop-color="#F97A12"/>
            <stop offset="0.0718" stop-color="#CB7A3E"/>
            <stop offset="0.1541" stop-color="#9E7B6A"/>
            <stop offset="0.242" stop-color="#757B91"/>
            <stop offset="0.3344" stop-color="#537BB1"/>
            <stop offset="0.4324" stop-color="#387CCC"/>
            <stop offset="0.5381" stop-color="#237CE0"/>
            <stop offset="0.6552" stop-color="#147CEF"/>
            <stop offset="0.7925" stop-color="#0B7CF7"/>
            <stop offset="1" stop-color="#087CFA"/>
        </linearGradient>
        <linearGradient id="paint2_linear" x1="60.9363" y1="50.9876" x2="47.2194" y2="7.30567"
                        gradientUnits="userSpaceOnUse">
            <stop stop-color="#FE315D"/>
            <stop offset="0.0784" stop-color="#CB417E"/>
            <stop offset="0.1601" stop-color="#9E4E9B"/>
            <stop offset="0.2474" stop-color="#755BB4"/>
            <stop offset="0.3392" stop-color="#5365CA"/>
            <stop offset="0.4365" stop-color="#386DDB"/>
            <stop offset="0.5414" stop-color="#2374E9"/>
            <stop offset="0.6576" stop-color="#1478F3"/>
            <stop offset="0.794" stop-color="#0B7BF8"/>
            <stop offset="1" stop-color="#087CFA"/>
        </linearGradient>
        <linearGradient id="paint3_linear" x1="22.692" y1="23.4362" x2="68.2565" y2="88.8209"
                        gradientUnits="userSpaceOnUse">
            <stop stop-color="#FE315D"/>
            <stop offset="0.04023" stop-color="#F63462"/>
            <stop offset="0.1037" stop-color="#DF3A71"/>
            <stop offset="0.1667" stop-color="#C24383"/>
            <stop offset="0.2912" stop-color="#AD4A91"/>
            <stop offset="0.5498" stop-color="#755BB4"/>
            <stop offset="0.9175" stop-color="#1D76ED"/>
            <stop offset="1" stop-color="#087CFA"/>
        </linearGradient>
    </defs>
</svg>
